<svg viewBox="0 0 1400 437" fill="none" xmlns="http://www.w3.org/2000/svg">
    <line x1="114.727" y1="103.687" x2="-24.2734" y2="250.687" stroke="#E5E7EB" stroke-width="2"/>
    <line x1="113.032" y1="103.252" x2="82.0323" y2="-15.7479" stroke="#E5E7EB" stroke-width="2"/>
    <line x1="229.34" y1="205.751" x2="113.34" y2="103.751" stroke="#E5E7EB" stroke-width="2"/>
    <line x1="406.955" y1="213.999" x2="229.955" y2="205.999" stroke="#E5E7EB" stroke-width="2"/>
    <line x1="406.511" y1="212.128" x2="586.511" y2="111.128" stroke="#E5E7EB" stroke-width="2"/>
    <line x1="407.516" y1="212.143" x2="643.516" y2="354.143" stroke="#E5E7EB" stroke-width="2"/>
    <line x1="753.87" y1="161.493" x2="643.87" y2="355.493" stroke="#E5E7EB" stroke-width="2"/>
    <line x1="752.717" y1="161.959" x2="586.717" y2="112.959" stroke="#E5E7EB" stroke-width="2"/>
    <line x1="752.722" y1="160.04" x2="921.722" y2="111.04" stroke="#E5E7EB" stroke-width="2"/>
    <line x1="923" y1="-16" x2="923" y2="112" stroke="#E5E7EB" stroke-width="2"/>
    <line x1="848.068" y1="299.638" x2="921.068" y2="111.638" stroke="#E5E7EB" stroke-width="2"/>
    <line x1="1057.17" y1="311.564" x2="921.174" y2="112.564" stroke="#E5E7EB" stroke-width="2"/>
    <line x1="1057.88" y1="310.007" x2="1263.88" y2="285.007" stroke="#E5E7EB" stroke-width="2"/>
    <line x1="1058.95" y1="311.302" x2="1014.95" y2="450.302" stroke="#E5E7EB" stroke-width="2"/>
    <line x1="1137.73" y1="149.317" x2="1264.73" y2="285.317" stroke="#E5E7EB" stroke-width="2"/>
    <line x1="1465.68" y1="355.946" x2="1263.68" y2="286.946" stroke="#E5E7EB" stroke-width="2"/>
    <line x1="1136.83" y1="150.985" x2="921.826" y2="112.985" stroke="#E5E7EB" stroke-width="2"/>
    <line x1="1136.09" y1="149.588" x2="1211.09" y2="-16.4117" stroke="#E5E7EB" stroke-width="2"/>
    <line x1="1057.95" y1="311.999" x2="848.947" y2="300.999" stroke="#E5E7EB" stroke-width="2"/>
    <line x1="849.258" y1="300.966" x2="643.258" y2="355.966" stroke="#E5E7EB" stroke-width="2"/>
    <line x1="669.026" y1="471.227" x2="642.026" y2="355.227" stroke="#E5E7EB" stroke-width="2"/>
    <line x1="425.62" y1="-16.7846" x2="587.62" y2="111.215" stroke="#E5E7EB" stroke-width="2"/>
    <line x1="406.015" y1="213.172" x2="366.015" y2="-15.8279" stroke="#E5E7EB" stroke-width="2"/>
    <line x1="207.014" y1="335.834" x2="229.014" y2="204.834" stroke="#E5E7EB" stroke-width="2"/>
    <line x1="407.526" y1="213.851" x2="208.526" y2="336.851" stroke="#E5E7EB" stroke-width="2"/>
    <line x1="106.252" y1="449.337" x2="207.252" y2="335.337" stroke="#E5E7EB" stroke-width="2"/>
    <circle cx="229.5" cy="205.5" r="21.5" fill="#AEDAE7"/>
    <circle cx="586.5" cy="112.5" r="56.5" fill="#CBF4FF"/>
    <circle cx="643" cy="355" r="43" fill="#6EA2F7"/>
    <circle cx="753" cy="161" r="23" fill="#C5FCE7"/>
    <circle cx="1264" cy="286" r="23" fill="#CBF4FF"/>
    <circle cx="922" cy="112" r="38" fill="#2BAE68"/>
    <circle cx="1057.5" cy="311.5" r="43.5" fill="#62FAB5"/>
    <circle cx="113.5" cy="103.5" r="43.5" fill="#C5FCE7"/>
    <circle cx="208" cy="336" r="36" fill="#E5E7EB"/>
    <g class="social-media">
        <circle cx="407" cy="213" r="81" fill="#62FAB5"/>
        <path d="M387.669 248H373.156V201.265H387.669V248ZM380.405 194.889C375.764 194.889 372 191.046 372 186.405C372 184.176 372.885 182.038 374.462 180.462C376.038 178.886 378.176 178 380.405 178C382.634 178 384.772 178.886 386.348 180.462C387.924 182.038 388.809 184.176 388.809 186.405C388.809 191.046 385.044 194.889 380.405 194.889ZM441.984 248H427.503V225.249C427.503 219.827 427.394 212.874 419.958 212.874C412.412 212.874 411.256 218.765 411.256 224.859V248H396.759V201.265H410.678V207.64H410.881C412.819 203.968 417.552 200.093 424.613 200.093C439.3 200.093 442 209.765 442 222.328V248H441.984Z"
              fill="#374151"/>
    </g>
    <g class="social-media">
        <circle cx="849" cy="300" r="73" fill="#E5E7EB"/>
        <path d="M837.413 320.956C837.413 321.238 837.089 321.464 836.679 321.464C836.214 321.506 835.889 321.28 835.889 320.956C835.889 320.673 836.214 320.448 836.623 320.448C837.046 320.405 837.413 320.631 837.413 320.956ZM833.024 320.321C832.925 320.603 833.208 320.927 833.631 321.012C833.998 321.153 834.421 321.012 834.506 320.73C834.591 320.448 834.323 320.123 833.899 319.996C833.532 319.897 833.123 320.038 833.024 320.321ZM839.262 320.081C838.853 320.179 838.571 320.448 838.613 320.772C838.655 321.054 839.022 321.238 839.446 321.139C839.855 321.04 840.137 320.772 840.095 320.49C840.052 320.222 839.671 320.038 839.262 320.081ZM848.548 266C828.974 266 814 280.861 814 300.435C814 316.087 823.851 329.48 837.921 334.194C839.728 334.518 840.363 333.403 840.363 332.486C840.363 331.611 840.321 326.784 840.321 323.821C840.321 323.821 830.442 325.937 828.367 319.615C828.367 319.615 826.758 315.508 824.444 314.45C824.444 314.45 821.212 312.234 824.669 312.276C824.669 312.276 828.183 312.558 830.117 315.917C833.208 321.365 838.387 319.798 840.405 318.867C840.73 316.609 841.647 315.042 842.663 314.111C834.774 313.236 826.815 312.093 826.815 298.516C826.815 294.635 827.887 292.687 830.145 290.204C829.778 289.286 828.579 285.504 830.512 280.621C833.462 279.704 840.25 284.431 840.25 284.431C843.073 283.641 846.107 283.232 849.113 283.232C852.119 283.232 855.153 283.641 857.976 284.431C857.976 284.431 864.764 279.69 867.714 280.621C869.647 285.518 868.448 289.286 868.081 290.204C870.339 292.702 871.722 294.649 871.722 298.516C871.722 312.135 863.409 313.222 855.52 314.111C856.819 315.226 857.919 317.343 857.919 320.659C857.919 325.415 857.877 331.3 857.877 332.458C857.877 333.375 858.526 334.49 860.319 334.165C874.431 329.48 884 316.087 884 300.435C884 280.861 868.123 266 848.548 266ZM827.718 314.675C827.534 314.817 827.577 315.141 827.817 315.409C828.042 315.635 828.367 315.734 828.55 315.55C828.734 315.409 828.692 315.085 828.452 314.817C828.226 314.591 827.901 314.492 827.718 314.675ZM826.194 313.532C826.095 313.716 826.236 313.942 826.518 314.083C826.744 314.224 827.026 314.181 827.125 313.984C827.224 313.8 827.083 313.575 826.8 313.433C826.518 313.349 826.292 313.391 826.194 313.532ZM830.766 318.556C830.54 318.74 830.625 319.163 830.95 319.431C831.274 319.756 831.683 319.798 831.867 319.573C832.05 319.389 831.966 318.966 831.683 318.698C831.373 318.373 830.95 318.331 830.766 318.556ZM829.157 316.482C828.931 316.623 828.931 316.99 829.157 317.315C829.383 317.639 829.764 317.78 829.948 317.639C830.173 317.456 830.173 317.089 829.948 316.764C829.75 316.44 829.383 316.298 829.157 316.482Z"
              fill="#374151"/>
    </g>
    <g class="social-media">
        <circle cx="1136.5" cy="150.5" r="68.5" fill="#AEDAE7"/>
        <path d="M1121.44 173.335C1118.33 173.335 1115.22 170.618 1113.67 169.454C1105.89 164.02 1103.56 162.08 1102 160.915V177.216C1102 179.359 1103.74 181.097 1105.89 181.097H1137C1139.15 181.097 1140.89 179.359 1140.89 177.216V160.915C1139.33 162.08 1137 164.02 1129.22 169.454C1127.67 170.618 1124.56 173.335 1121.44 173.335ZM1137 150.048H1105.89C1103.74 150.048 1102 151.786 1102 153.929V155.87C1105.11 158.199 1104.72 158.199 1116 166.349C1117.17 167.125 1119.5 169.454 1121.44 169.454C1123.39 169.454 1125.72 167.125 1126.89 166.737C1138.17 158.587 1137.78 158.587 1140.89 156.258V153.929C1140.89 151.786 1139.15 150.048 1137 150.048ZM1168.11 138.405H1129.22C1127.07 138.405 1125.33 140.143 1125.33 142.286V146.167H1137C1141.04 146.167 1144.36 149.25 1144.74 153.18L1144.78 153.153V169.454H1168.11C1170.26 169.454 1172 167.716 1172 165.573V142.286C1172 140.143 1170.26 138.405 1168.11 138.405ZM1164.22 153.929H1156.44V146.167H1164.22V153.929ZM1121.44 142.286C1121.44 138.006 1124.93 134.524 1129.22 134.524H1156.44V122.881C1156.44 120.738 1154.7 119 1152.56 119H1113.67C1111.52 119 1109.78 120.738 1109.78 122.881V146.167H1121.44V142.286Z"
              fill="#374151"/>
    </g>
</svg>
