<svg viewBox="0 0 1400 860" fill="none" xmlns="http://www.w3.org/2000/svg">
    <g>
        <rect x="1" y="841" width="1398" height="18" fill="#F2FFF9" stroke="#F2FFF9" stroke-width="2"/>
        <rect x="109.922" y="821" width="1289.08" height="18" fill="#F2FFF9" stroke="#F2FFF9" stroke-width="2"/>
        <mask id="path-3-inside-1_123_667" fill="white">
            <path d="M635.546 800H1400V820H635.546V800Z"/>
        </mask>
        <path d="M635.546 800H1400V820H635.546V800Z" fill="#F2FFF9"/>
        <path d="M635.546 802H1400V798H635.546V802Z" fill="white" mask="url(#path-3-inside-1_123_667)"/>
        <mask id="path-5-inside-2_123_667" fill="white">
            <path d="M82.9408 800H418.701V820H82.9408V800Z"/>
        </mask>
        <path d="M82.9408 800H418.701V820H82.9408V800Z" fill="#F2FFF9"/>
        <path d="M416.701 800V820H420.701V800H416.701Z" fill="white" mask="url(#path-5-inside-2_123_667)"/>
        <mask id="path-7-inside-3_123_667" fill="white">
            <path d="M418.701 800H635.546V820H418.701V800Z"/>
        </mask>
        <path d="M418.701 800H635.546V820H418.701V800Z" fill="#F2FFF9"/>
        <path d="M635.546 818H418.701V822H635.546V818Z" fill="white" mask="url(#path-7-inside-3_123_667)"/>
        <rect x="931.335" y="781" width="467.665" height="18" fill="#F2FFF9" stroke="#F2FFF9" stroke-width="2"/>
        <rect x="1055.25" y="761" width="343.753" height="18" fill="#F2FFF9" stroke="#F2FFF9" stroke-width="2"/>
        <rect x="1153.18" y="741" width="245.823" height="18" fill="#F2FFF9" stroke="#F2FFF9" stroke-width="2"/>
        <rect x="905.354" y="741" width="245.823" height="18" fill="#F2FFF9" stroke="white" stroke-width="2"/>
        <rect x="657.531" y="741" width="245.823" height="18" fill="#F2FFF9" stroke="white" stroke-width="2"/>
        <rect x="1242.11" y="721" width="156.887" height="18" fill="#F2FFF9" stroke="white" stroke-width="2"/>
        <rect x="1083.23" y="721" width="156.887" height="18" fill="#F2FFF9" stroke="white" stroke-width="2"/>
        <rect x="991.292" y="721" width="89.9343" height="18" fill="#F2FFF9" stroke="white" stroke-width="2"/>
        <rect x="899.358" y="721" width="89.9343" height="18" fill="#F2FFF9" stroke="white" stroke-width="2"/>
        <mask id="path-18-inside-4_123_667" fill="white">
            <path d="M806.424 720H898.358V740H806.424V720Z"/>
        </mask>
        <path d="M806.424 720H898.358V740H806.424V720Z" fill="#F2FFF9"/>
        <path d="M898.358 738H806.424V742H898.358V738Z" fill="#F2FFF9" mask="url(#path-18-inside-4_123_667)"/>
        <rect x="648.537" y="721" width="149.892" height="18" fill="#F2FFF9" stroke="white" stroke-width="2"/>
        <rect x="501.642" y="721" width="144.895" height="18" fill="#F2FFF9" stroke="white" stroke-width="2"/>
        <rect width="109.925" height="19.9993" transform="matrix(0.975807 -0.218631 0.218334 0.975874 378.873 722.258)"
              fill="#F2FFF9"/>
        <rect x="1266.1" y="701" width="132.904" height="18" fill="#F2FFF9" stroke="white" stroke-width="2"/>
        <rect x="1131.19" y="701" width="127.907" height="18" fill="#F2FFF9" stroke="white" stroke-width="2"/>
        <rect x="1061.24" y="701" width="67.95" height="18" fill="#F2FFF9" stroke="white" stroke-width="2"/>
        <rect x="1.02582" y="0.973462" width="75.9444" height="13"
              transform="matrix(0.999657 -0.0261956 0.0261583 0.999658 974.279 705.069)" fill="#F2FFF9" stroke="white"
              stroke-width="2"/>
        <rect x="897.36" y="701" width="75.9443" height="18" fill="#F2FFF9" stroke="white" stroke-width="2"/>
        <rect x="762.456" y="701" width="132.904" height="18" fill="#F2FFF9" stroke="white" stroke-width="2"/>
        <rect x="627.552" y="701" width="132.904" height="18" fill="#F2FFF9" stroke="white" stroke-width="2"/>
        <rect x="534.619" y="701" width="90.9336" height="18" fill="#F2FFF9" stroke="white" stroke-width="2"/>
        <mask id="path-31-inside-5_123_667" fill="white">
            <path d="M408.708 740H656.531V760H408.708V740Z"/>
        </mask>
        <path d="M408.708 740H656.531V760H408.708V740Z" fill="#F2FFF9"/>
        <path d="M654.531 740V760H658.531V740H654.531Z" fill="white" mask="url(#path-31-inside-5_123_667)"/>
        <rect x="242.827" y="741" width="164.881" height="18" fill="#F2FFF9" stroke="white" stroke-width="2"/>
        <rect x="709.494" y="761" width="343.753" height="18" fill="#F2FFF9" stroke="#F2FFF9" stroke-width="2"/>
        <rect x="363.741" y="761" width="343.753" height="18" fill="#F2FFF9" stroke="white" stroke-width="2"/>
        <rect x="134.904" y="761" width="226.837" height="18" fill="#F2FFF9" stroke="white" stroke-width="2"/>
        <mask id="path-37-inside-6_123_667" fill="white">
            <path d="M590.578 780H930.335V800H590.578V780Z"/>
        </mask>
        <path d="M590.578 780H930.335V800H590.578V780Z" fill="#F2FFF9"/>
        <path d="M928.335 780V800H932.335V780H928.335Z" fill="white" mask="url(#path-37-inside-6_123_667)"/>
        <mask id="path-39-inside-7_123_667" fill="white">
            <path d="M329.764 780H590.578V800H329.764V780Z"/>
        </mask>
        <path d="M329.764 780H590.578V800H329.764V780Z" fill="#F2FFF9"/>
        <path d="M329.764 782H590.578V778H329.764V782Z" fill="white" mask="url(#path-39-inside-7_123_667)"/>
        <rect x="146.896" y="781" width="178.871" height="18" fill="#F2FFF9" stroke="white" stroke-width="2"/>
        <rect x="266.81" y="711" width="36.9722" height="18" fill="#F2FFF9" stroke="#F2FFF9" stroke-width="2"/>
        <rect x="1.14947" y="0.823565" width="34.9743" height="17.9996"
              transform="matrix(0.986612 -0.163085 0.162858 0.98665 361.241 673.347)" fill="#F2FFF9" stroke="#F2FFF9"
              stroke-width="2"/>
        <rect x="490.65" y="661" width="28.9779" height="23" fill="#F2FFF9" stroke="#F2FFF9" stroke-width="2"/>
        <rect x="435.689" y="681" width="17.9857" height="18" fill="#F2FFF9" stroke="#F2FFF9" stroke-width="2"/>
        <rect x="554.605" y="671" width="34.9736" height="18" fill="#F2FFF9" stroke="#F2FFF9" stroke-width="2"/>
        <rect x="641.542" y="651" width="35.9729" height="18" fill="#F2FFF9" stroke="#F2FFF9" stroke-width="2"/>
        <rect x="0.804935" y="1.16301" width="17.9862" height="17.9995"
              transform="matrix(0.983824 0.179137 -0.178889 0.983869 572.764 608.246)" fill="#F2FFF9" stroke="#F2FFF9"
              stroke-width="2"/>
        <rect x="727.481" y="621" width="17.9857" height="18" fill="#F2FFF9" stroke="#F2FFF9" stroke-width="2"/>
        <rect x="727.481" y="621" width="17.9857" height="18" fill="#F2FFF9" stroke="#F2FFF9" stroke-width="2"/>
        <rect x="727.481" y="616" width="17.9857" height="23" fill="#F2FFF9" stroke="#F2FFF9" stroke-width="2"/>
        <rect x="1344.04" y="681" width="54.9593" height="18" fill="#F2FFF9" stroke="white" stroke-width="2"/>
        <rect x="1288.08" y="681" width="53.96" height="18" fill="#F2FFF9" stroke="white" stroke-width="2"/>
        <rect x="1231.12" y="681" width="54.9593" height="18" fill="#F2FFF9" stroke="white" stroke-width="2"/>
        <rect x="1174.16" y="681" width="54.9593" height="18" fill="#F2FFF9" stroke="white" stroke-width="2"/>
        <rect x="1118.2" y="686" width="53.96" height="13" fill="#F2FFF9" stroke="white" stroke-width="2"/>
        <rect x="1061.24" y="681" width="54.9593" height="18" fill="#F2FFF9" stroke="white" stroke-width="2"/>
        <rect x="1004.28" y="681" width="54.9593" height="18" fill="#F2FFF9" stroke="white" stroke-width="2"/>
        <rect x="948.323" y="681" width="53.96" height="18" fill="#F2FFF9" stroke="white" stroke-width="2"/>
        <rect x="891.364" y="681" width="54.9593" height="18" fill="#F2FFF9" stroke="white" stroke-width="2"/>
        <rect x="834.405" y="681" width="54.9593" height="18" fill="#F2FFF9" stroke="white" stroke-width="2"/>
        <rect x="778.445" y="681" width="53.96" height="18" fill="#F2FFF9" stroke="white" stroke-width="2"/>
        <rect x="673.52" y="681" width="95.93" height="18" fill="#F2FFF9" stroke="white" stroke-width="2"/>
        <rect x="616.56" y="681" width="54.9593" height="18" fill="#F2FFF9" stroke="white" stroke-width="2"/>
        <rect x="1359.03" y="661" width="39.97" height="18" fill="#F2FFF9" stroke="white" stroke-width="2"/>
        <rect x="1316.06" y="661" width="40.9693" height="18" fill="#F2FFF9" stroke="white" stroke-width="2"/>
        <rect x="1274.09" y="661" width="40.9693" height="18" fill="#F2FFF9" stroke="white" stroke-width="2"/>
        <rect x="1237.12" y="661" width="34.9736" height="18" fill="#F2FFF9" stroke="white" stroke-width="2"/>
        <rect x="1189.15" y="661" width="40.9693" height="18" fill="#F2FFF9" stroke="white" stroke-width="2"/>
        <rect x="1171.16" y="641" width="68.9493" height="18" fill="#F2FFF9" stroke="white" stroke-width="2"/>
        <rect x="1147.18" y="661" width="39.97" height="18" fill="#F2FFF9" stroke="white" stroke-width="2"/>
        <rect x="1089.22" y="661" width="39.97" height="18" fill="#F2FFF9" stroke="white" stroke-width="2"/>
        <rect x="1046.25" y="661" width="40.9693" height="18" fill="#F2FFF9" stroke="white" stroke-width="2"/>
        <rect x="0.922621" y="1.07191" width="40.9695" height="17.9999"
              transform="matrix(0.997207 0.0746921 -0.0745861 0.997215 1003.17 657.357)" fill="#F2FFF9" stroke="white"
              stroke-width="2"/>
        <rect x="962.313" y="661" width="39.97" height="18" fill="#F2FFF9" stroke="white" stroke-width="2"/>
        <rect x="919.344" y="661" width="40.9693" height="18" fill="#F2FFF9" stroke="white" stroke-width="2"/>
        <rect x="861.385" y="661" width="39.97" height="18" fill="#F2FFF9" stroke="white" stroke-width="2"/>
        <rect x="819.416" y="661" width="39.97" height="18" fill="#F2FFF9" stroke="white" stroke-width="2"/>
        <rect x="749.465" y="656" width="39.97" height="23" fill="#F2FFF9" stroke="white" stroke-width="2"/>
        <rect x="1376.02" y="635" width="22.9822" height="18" fill="#F2FFF9" stroke="white" stroke-width="2"/>
        <rect x="1350.04" y="641" width="23.9814" height="18" fill="#F2FFF9" stroke="white" stroke-width="2"/>
        <rect x="1326.05" y="641" width="22.9822" height="18" fill="#F2FFF9" stroke="white" stroke-width="2"/>
        <rect x="1301.07" y="635" width="22.9822" height="18" fill="#F2FFF9" stroke="white" stroke-width="2"/>
        <rect x="1275.09" y="641" width="23.9814" height="18" fill="#F2FFF9" stroke="white" stroke-width="2"/>
        <rect x="1242.11" y="641" width="22.9822" height="18" fill="#F2FFF9" stroke="white" stroke-width="2"/>
        <rect x="872.378" y="641" width="112.918" height="18" fill="#F2FFF9" stroke="white" stroke-width="2"/>
        <rect x="1010.28" y="636" width="42.9679" height="18" fill="#F2FFF9" stroke="white" stroke-width="2"/>
        <rect x="1354.03" y="611" width="44.9664" height="18" fill="#F2FFF9" stroke="white" stroke-width="2"/>
        <rect x="1366.02" y="581" width="32.975" height="18" fill="#F2FFF9" stroke="white" stroke-width="2"/>
        <rect x="1326.05" y="605" width="20.9836" height="18" fill="#F2FFF9" stroke="white" stroke-width="2"/>
        <rect x="1.14524" y="0.829445" width="20.984" height="17.9996"
              transform="matrix(0.987435 -0.158026 0.157806 0.98747 1269.98 613.823)" fill="#F2FFF9" stroke="white"
              stroke-width="2"/>
        <rect x="1247.11" y="611" width="14.9879" height="28" fill="#F2FFF9" stroke="white" stroke-width="2"/>
        <rect x="1207.14" y="621" width="20.9836" height="18" fill="#F2FFF9" stroke="white" stroke-width="2"/>
        <rect x="1073.23" y="641" width="44.9664" height="18" fill="#F2FFF9" stroke="white" stroke-width="2"/>
        <rect x="1095.22" y="621" width="44.9664" height="18" fill="#F2FFF9" stroke="white" stroke-width="2"/>
        <rect x="963.312" y="621" width="44.9664" height="18" fill="#F2FFF9" stroke="white" stroke-width="2"/>
        <mask id="path-97-inside-8_123_667" fill="white">
            <path d="M29.9786 820H108.922V840H29.9786V820Z"/>
        </mask>
        <path d="M29.9786 820H108.922V840H29.9786V820Z" fill="#F2FFF9"/>
        <path d="M108.922 838H29.9786V842H108.922V838Z" fill="white" mask="url(#path-97-inside-8_123_667)"/>
        <rect x="962.33" y="621" width="44.9185" height="18" fill="#F2FFF9" stroke="white" stroke-width="2"/>
        <rect x="1340.67" y="571" width="21.9584" height="18" fill="#F2FFF9" stroke="white" stroke-width="2"/>
        <path d="M1217.89 601H1239.84V619H1217.89V601Z" fill="#F2FFF9" stroke="white" stroke-width="2"/>
        <path d="M1193.93 594H1215.89V619H1193.93V594Z" fill="#F2FFF9" stroke="white" stroke-width="2"/>
        <path d="M1169.97 611H1191.93V629H1169.97V611Z" fill="#F2FFF9" stroke="white" stroke-width="2"/>
        <path d="M1140.02 641H1161.98V659H1140.02V641Z" fill="#F2FFF9" stroke="white" stroke-width="2"/>
        <path d="M1054.17 621H1076.13V639H1054.17V621Z" fill="#F2FFF9" stroke="white" stroke-width="2"/>
        <path d="M1009.25 611H1031.21V633H1009.25V611Z" fill="#F2FFF9" stroke="white" stroke-width="2"/>
        <path d="M1316.71 585H1338.67V603H1316.71V585Z" fill="#F2FFF9" stroke="white" stroke-width="2"/>
        <path d="M1292.76 591H1314.71V609H1292.76V591Z" fill="#F2FFF9" stroke="white" stroke-width="2"/>
        <path d="M1268.8 591H1290.76V609H1268.8V591Z" fill="#F2FFF9" stroke="white" stroke-width="2"/>
        <path d="M1221.88 568H1276.78V589H1221.88V568Z" fill="#F2FFF9" stroke="white" stroke-width="2"/>
        <path d="M1278.78 571H1300.74V589H1278.78V571Z" fill="#F2FFF9" stroke="white" stroke-width="2"/>
        <path d="M1272.79 548H1294.75V566H1272.79V548Z" fill="#F2FFF9" stroke="white" stroke-width="2"/>
        <path d="M1248.83 548H1270.79V566H1248.83V548Z" fill="#F2FFF9" stroke="white" stroke-width="2"/>
        <path d="M1264.81 535H1286.76V546H1264.81V535Z" fill="#F2FFF9" stroke="white" stroke-width="2"/>
        <path d="M1301.83 565.251L1323.69 563.094L1325.45 581.007L1303.6 583.164L1301.83 565.251Z" fill="#F2FFF9"
              stroke="white" stroke-width="2"/>
        <path d="M1375.61 561H1397.57V579H1375.61V561Z" fill="#F2FFF9" stroke="white" stroke-width="2"/>
        <path d="M1313.2 538.967L1397.95 543.054L1397.09 561.033L1312.34 556.946L1313.2 538.967Z" fill="#F2FFF9"
              stroke="white" stroke-width="2"/>
        <path d="M1290.38 521.952L1371.14 518.069L1372 536.048L1291.24 539.932L1290.38 521.952Z" fill="#F2FFF9"
              stroke="white" stroke-width="2"/>
        <path d="M1160.99 548H1203.91V566H1160.99V548Z" fill="#F2FFF9" stroke="white" stroke-width="2"/>
        <path d="M929.524 590.434L972.182 585.677L974.17 603.567L931.511 608.323L929.524 590.434Z" fill="#F2FFF9"
              stroke="white" stroke-width="2"/>
        <path d="M1343.97 488.369L1386.55 493.774L1384.29 511.631L1341.71 506.226L1343.97 488.369Z" fill="#F2FFF9"
              stroke="white" stroke-width="2"/>
        <path d="M1219.88 528H1262.81V546H1219.88V528Z" fill="#F2FFF9" stroke="white" stroke-width="2"/>
        <path d="M1095.1 561H1138.02V579H1095.1V561Z" fill="#F2FFF9" stroke="white" stroke-width="2"/>
        <path d="M999.793 560.078L1020.4 556.227L1023.69 573.922L1003.09 577.773L999.793 560.078Z" fill="#F2FFF9"
              stroke="white" stroke-width="2"/>
        <path d="M1049.18 521H1070.14V546H1049.18V521Z" fill="#F2FFF9" stroke="white" stroke-width="2"/>
        <path d="M808.597 611H850.521V636H808.597V611Z" fill="#F2FFF9" stroke="white" stroke-width="2"/>
        <path d="M1083.12 603H1167.97V621H1083.12V603Z" fill="#F2FFF9" stroke="white" stroke-width="2"/>
        <path d="M1152 574H1207.9V592H1152V574Z" fill="#F2FFF9" stroke="white" stroke-width="2"/>
        <path d="M1067.15 583H1123.05V601H1067.15V583Z" fill="#F2FFF9" stroke="white" stroke-width="2"/>
        <path d="M904.431 621H951.346V639H904.431V621Z" fill="#F2FFF9" stroke="white" stroke-width="2"/>
        <rect x="1.16278" y="0.804188" width="17.9664" height="17.9989"
              transform="matrix(0.98373 -0.179652 0.17905 0.98384 1351.9 366.178)" fill="#F2FFF9" stroke="#F2FFF9"
              stroke-width="2"/>
        <rect x="1338.68" y="336" width="17.9653" height="22" fill="#F2FFF9" stroke="#F2FFF9" stroke-width="2"/>
        <rect x="1256.82" y="383" width="17.9653" height="22" fill="#F2FFF9" stroke="#F2FFF9" stroke-width="2"/>
        <rect x="1164.98" y="439" width="17.9653" height="22" fill="#F2FFF9" stroke="#F2FFF9" stroke-width="2"/>
        <rect x="0.775565" y="1.18317" width="17.9668" height="21.9983"
              transform="matrix(0.978957 0.204069 -0.203391 0.979098 1085.03 503.081)" fill="#F2FFF9" stroke="#F2FFF9"
              stroke-width="2"/>
        <rect x="1021.23" y="477" width="17.9653" height="22" fill="#F2FFF9" stroke="#F2FFF9" stroke-width="2"/>
        <rect x="1088.11" y="452" width="17.9653" height="22" fill="#F2FFF9" stroke="#F2FFF9" stroke-width="2"/>
        <rect x="146.747" y="721" width="17.9653" height="22" fill="#F2FFF9" stroke="#F2FFF9" stroke-width="2"/>
        <rect x="214.629" y="686" width="17.9653" height="22" fill="#F2FFF9" stroke="#F2FFF9" stroke-width="2"/>
        <rect x="0.8158" y="1.1557" width="17.9663" height="21.9988"
              transform="matrix(0.985412 0.170185 -0.169612 0.985511 185.071 726.353)" fill="#F2FFF9" stroke="#F2FFF9"
              stroke-width="2"/>
        <rect x="1332.69" y="375" width="17.9653" height="18" fill="#F2FFF9" stroke="#F2FFF9" stroke-width="2"/>
        <rect x="1305.73" y="375" width="17.9653" height="18" fill="#F2FFF9" stroke="#F2FFF9" stroke-width="2"/>
        <rect x="1289.76" y="399" width="17.9653" height="18" fill="#F2FFF9" stroke="#F2FFF9" stroke-width="2"/>
        <rect x="1285.77" y="438" width="17.9653" height="18" fill="#F2FFF9" stroke="#F2FFF9" stroke-width="2"/>
        <rect x="1239.85" y="417" width="17.9653" height="22" fill="#F2FFF9" stroke="#F2FFF9" stroke-width="2"/>
        <rect x="0.765884" y="1.18948" width="26.952" height="17.9984"
              transform="matrix(0.977254 0.212072 -0.21137 0.977406 1201.63 446.021)" fill="#F2FFF9" stroke="#F2FFF9"
              stroke-width="2"/>
        <rect x="0.842154" y="1.13657" width="26.9508" height="17.9992"
              transform="matrix(0.989074 0.14742 -0.14692 0.989148 1333.8 438.888)" fill="#F2FFF9" stroke="#F2FFF9"
              stroke-width="2"/>
        <rect x="1359.64" y="409" width="26.9497" height="18" fill="#F2FFF9" stroke="#F2FFF9" stroke-width="2"/>
        <rect x="1245.84" y="448" width="21.9584" height="20" fill="#F2FFF9" stroke="#F2FFF9" stroke-width="2"/>
        <rect x="1244.84" y="491" width="29.9445" height="18" fill="#F2FFF9" stroke="#F2FFF9" stroke-width="2"/>
        <rect x="1114.07" y="443" width="19.9619" height="37" fill="#F2FFF9" stroke="#F2FFF9" stroke-width="2"/>
        <rect x="0.685345" y="1.2378" width="19.9648" height="36.9949"
              transform="matrix(0.961002 0.276542 -0.275657 0.961256 1147.19 391.579)" fill="#F2FFF9" stroke="#F2FFF9"
              stroke-width="2"/>
        <rect x="1.06177" y="0.933916" width="19.962" height="36.9997"
              transform="matrix(0.997947 -0.0640447 0.0638237 0.997961 1193.6 371.092)" fill="#F2FFF9" stroke="#F2FFF9"
              stroke-width="2"/>
        <rect x="0.742245" y="1.20442" width="17.9672" height="17.9982"
              transform="matrix(0.972864 0.231378 -0.230619 0.973044 1212.77 415.821)" fill="#F2FFF9" stroke="#F2FFF9"
              stroke-width="2"/>
        <path d="M1290.76 476H1313.72V504H1290.76V476Z" fill="#F2FFF9" stroke="#F2FFF9" stroke-width="2"/>
        <rect x="1211.9" y="480" width="17.9653" height="18" fill="#F2FFF9" stroke="#F2FFF9" stroke-width="2"/>
        <rect x="0.705113" y="1.22661" width="27.9515" height="17.9976"
              transform="matrix(0.965324 0.261054 -0.260211 0.965552 1172.43 513.294)" fill="#F2FFF9" stroke="#F2FFF9"
              stroke-width="2"/>
        <rect x="1156.99" y="471" width="17.9653" height="18" fill="#F2FFF9" stroke="#F2FFF9" stroke-width="2"/>
        <rect x="1110.07" y="525" width="17.9653" height="18" fill="#F2FFF9" stroke="#F2FFF9" stroke-width="2"/>
        <rect x="1120.06" y="491" width="17.9653" height="18" fill="#F2FFF9" stroke="#F2FFF9" stroke-width="2"/>
        <rect x="1003.26" y="522" width="17.9653" height="18" fill="#F2FFF9" stroke="#F2FFF9" stroke-width="2"/>
        <rect x="970.316" y="541" width="17.9653" height="18" fill="#F2FFF9" stroke="#F2FFF9" stroke-width="2"/>
        <rect x="937.374" y="568" width="17.9653" height="18" fill="#F2FFF9" stroke="#F2FFF9" stroke-width="2"/>
        <rect x="0.733818" y="1.20959" width="17.9673" height="17.998"
              transform="matrix(0.971221 0.238181 -0.237403 0.971411 880.445 577.769)" fill="#F2FFF9" stroke="#F2FFF9"
              stroke-width="2"/>
        <rect x="829.561" y="561" width="28.9463" height="28" fill="#F2FFF9" stroke="#F2FFF9" stroke-width="2"/>
        <rect x="896.445" y="548" width="28.9463" height="18" fill="#F2FFF9" stroke="#F2FFF9" stroke-width="2"/>
        <rect x="1263.81" y="357" width="28.9463" height="18" fill="#F2FFF9" stroke="#F2FFF9" stroke-width="2"/>
        <rect x="914.413" y="489" width="28.9463" height="18" fill="#F2FFF9" stroke="#F2FFF9" stroke-width="2"/>
        <rect x="1284.77" y="307" width="28.9463" height="18" fill="#F2FFF9" stroke="#F2FFF9" stroke-width="2"/>
        <rect x="1045.19" y="395" width="28.9463" height="18" fill="#F2FFF9" stroke="#F2FFF9" stroke-width="2"/>
        <rect x="1.19288" y="0.758666" width="28.9488" height="17.9984"
              transform="matrix(0.97605 -0.217544 0.216826 0.97621 962.193 435.01)" fill="#F2FFF9" stroke="#F2FFF9"
              stroke-width="2"/>
        <rect x="1201.91" y="275" width="28.9463" height="18" fill="#F2FFF9" stroke="#F2FFF9" stroke-width="2"/>
        <rect x="1226.87" y="325" width="16.9671" height="30" fill="#F2FFF9" stroke="#F2FFF9" stroke-width="2"/>
        <rect x="1254.82" y="294" width="16.9671" height="19" fill="#F2FFF9" stroke="#F2FFF9" stroke-width="2"/>
        <rect x="1174.96" y="320" width="16.9671" height="19" fill="#F2FFF9" stroke="#F2FFF9" stroke-width="2"/>
        <rect x="1.16278" y="0.804188" width="17.9664" height="17.9989"
              transform="matrix(0.98373 -0.179652 0.17905 0.98384 1247.71 228.809)" fill="#F2FFF9" stroke="#F2FFF9"
              stroke-width="2"/>
        <rect x="1.27195" y="0.616438" width="17.9691" height="17.9963"
              transform="matrix(0.944525 -0.328439 0.327424 0.944878 1134.8 301.915)" fill="#F2FFF9" stroke="#F2FFF9"
              stroke-width="2"/>
        <rect x="0.757766" y="1.19468" width="17.967" height="17.9983"
              transform="matrix(0.975783 0.218739 -0.218018 0.975945 1327.4 257.921)" fill="#F2FFF9" stroke="#F2FFF9"
              stroke-width="2"/>
        <rect x="0.869365" y="1.11582" width="17.9659" height="17.9995"
              transform="matrix(0.992356 0.123411 -0.12299 0.992408 1327.15 203.745)" fill="#F2FFF9" stroke="#F2FFF9"
              stroke-width="2"/>
        <rect x="0.556641" y="1.30098" width="17.9701" height="17.9952"
              transform="matrix(0.928031 0.372502 -0.37139 0.928477 1353.61 161.884)" fill="#F2FFF9" stroke="#F2FFF9"
              stroke-width="2"/>
        <rect x="0.676509" y="1.24267" width="17.9681" height="17.9972"
              transform="matrix(0.959003 0.283397 -0.282494 0.959269 1295.37 245.438)" fill="#F2FFF9" stroke="#F2FFF9"
              stroke-width="2"/>
        <rect x="1.26011" y="0.640379" width="17.9687" height="17.9967"
              transform="matrix(0.95057 -0.310509 0.309536 0.950888 1261.07 110.016)" fill="#F2FFF9" stroke="#F2FFF9"
              stroke-width="2"/>
        <rect x="0.842461" y="1.13634" width="17.9661" height="17.9993"
              transform="matrix(0.989114 0.147152 -0.146653 0.989188 1294.51 163.528)" fill="#F2FFF9" stroke="#F2FFF9"
              stroke-width="2"/>
        <rect x="1240.85" y="186" width="17.9653" height="18" fill="#F2FFF9" stroke="#F2FFF9" stroke-width="2"/>
        <rect x="1207.9" y="156" width="17.9653" height="18" fill="#F2FFF9" stroke="#F2FFF9" stroke-width="2"/>
        <rect x="1173.96" y="216" width="17.9653" height="18" fill="#F2FFF9" stroke="#F2FFF9" stroke-width="2"/>
        <rect x="1104.08" y="357" width="17.9653" height="18" fill="#F2FFF9" stroke="#F2FFF9" stroke-width="2"/>
        <rect x="1276.78" y="57" width="17.9653" height="18" fill="#F2FFF9" stroke="#F2FFF9" stroke-width="2"/>
        <rect x="1137.03" y="170" width="17.9653" height="18" fill="#F2FFF9" stroke="#F2FFF9" stroke-width="2"/>
        <rect x="1098.09" y="265" width="17.9653" height="18" fill="#F2FFF9" stroke="#F2FFF9" stroke-width="2"/>
        <rect x="944.362" y="373" width="17.9653" height="18" fill="#F2FFF9" stroke="#F2FFF9" stroke-width="2"/>
        <rect x="830.559" y="469" width="17.9653" height="18" fill="#F2FFF9" stroke="#F2FFF9" stroke-width="2"/>
        <path d="M698.289 563.5H716.254V581.5H698.289V563.5Z" fill="#F2FFF9" stroke="#F2FFF9" stroke-width="2"/>
        <rect x="1.15411" y="0.816618" width="17.9663" height="17.999"
              transform="matrix(0.985602 -0.169082 0.168512 0.9857 442.566 602.038)" fill="#F2FFF9" stroke="#F2FFF9"
              stroke-width="2"/>
        <rect x="957.339" y="259" width="17.9653" height="18" fill="#F2FFF9" stroke="#F2FFF9" stroke-width="2"/>
        <rect x="0.778162" y="1.18145" width="17.9667" height="17.9986"
              transform="matrix(0.979403 0.201913 -0.201242 0.979542 1024.7 308.057)" fill="#F2FFF9" stroke="#F2FFF9"
              stroke-width="2"/>
        <rect x="746.705" y="496" width="17.9653" height="18" fill="#F2FFF9" stroke="#F2FFF9" stroke-width="2"/>
        <rect x="1.23763" y="0.682946" width="29.9488" height="17.9973"
              transform="matrix(0.960605 -0.277916 0.277027 0.960862 540.774 555.203)" fill="#F2FFF9" stroke="#F2FFF9"
              stroke-width="2"/>
        <rect x="0.695007" y="1.23238" width="29.9485" height="17.9975"
              transform="matrix(0.96314 0.268999 -0.268134 0.963382 304.248 542.975)" fill="#F2FFF9" stroke="#F2FFF9"
              stroke-width="2"/>
        <rect x="0.695007" y="1.23238" width="19.9157" height="17.9975"
              transform="matrix(0.96314 0.268999 -0.268134 0.963382 388.054 507.858)" fill="#F2FFF9" stroke="#F2FFF9"
              stroke-width="2"/>
        <rect x="1.04403" y="0.953771" width="19.913" height="17.9999"
              transform="matrix(0.998977 -0.0452135 0.0450572 0.998984 453.171 381.039)" fill="#F2FFF9" stroke="#F2FFF9"
              stroke-width="2"/>
        <rect x="0.782039" y="1.17888" width="25.9534" height="34.9975"
              transform="matrix(0.980063 0.198685 -0.198024 0.980197 643.471 503.868)" fill="#F2FFF9" stroke="#F2FFF9"
              stroke-width="2"/>
        <rect x="1.09522" y="0.894317" width="25.9519" height="18.9996"
              transform="matrix(0.994923 -0.100641 0.100296 0.994958 761.575 438.395)" fill="#F2FFF9" stroke="#F2FFF9"
              stroke-width="2"/>
        <rect x="1.18666" y="0.768393" width="26.9519" height="17.9985"
              transform="matrix(0.977797 -0.209553 0.208859 0.977946 1046.28 238.52)" fill="#F2FFF9" stroke="#F2FFF9"
              stroke-width="2"/>
        <rect x="1149.01" y="115" width="17.9653" height="18" fill="#F2FFF9" stroke="#F2FFF9" stroke-width="2"/>
        <rect x="1196.92" y="49" width="17.9653" height="18" fill="#F2FFF9" stroke="#F2FFF9" stroke-width="2"/>
        <rect x="1240.85" y="1" width="17.9653" height="18" fill="#F2FFF9" stroke="#F2FFF9" stroke-width="2"/>
        <rect x="656.861" y="430" width="17.9653" height="18" fill="#F2FFF9" stroke="#F2FFF9" stroke-width="2"/>
        <rect x="888.459" y="360" width="17.9653" height="18" fill="#F2FFF9" stroke="#F2FFF9" stroke-width="2"/>
        <rect x="0.774799" y="1.18367" width="17.9668" height="25.331"
              transform="matrix(0.978824 0.204704 -0.204024 0.978966 609.952 346.855)" fill="#F2FFF9" stroke="#F2FFF9"
              stroke-width="2"/>
        <rect x="0.83494" y="1.1419" width="17.9661" height="29.9987"
              transform="matrix(0.988118 0.153698 -0.153178 0.988199 523.849 163.54)" fill="#F2FFF9" stroke="#F2FFF9"
              stroke-width="2"/>
        <rect x="799.613" y="77" width="17.9653" height="18" fill="#F2FFF9" stroke="#F2FFF9" stroke-width="2"/>
        <rect x="834.552" y="229" width="17.9653" height="18" fill="#F2FFF9" stroke="#F2FFF9" stroke-width="2"/>
        <g>
            <line x1="88.1291" y1="863.491" x2="74.5871" y2="839.491" stroke="#E5E7EB" stroke-width="2"/>
            <line x1="369.057" y1="861.333" x2="340.757" y2="781.334" stroke="#E5E7EB" stroke-width="2"/>
            <line x1="445.402" y1="861.198" x2="500.402" y2="820.198" stroke="#E5E7EB" stroke-width="2"/>
            <line x1="923.365" y1="861.262" x2="907.365" y2="802.262" stroke="#E5E7EB" stroke-width="2"/>
            <path d="M1202.7 861.253L1238 812" stroke="#E5E7EB" stroke-width="2"/>
            <line x1="1237.45" y1="812.412" x2="1277.75" y2="802.032" stroke="#E5E7EB" stroke-width="2"/>
        </g>
    </g>
</svg>
